<svg width="33" height="33" viewBox="0 0 33 33" fill="none" xmlns="http://www.w3.org/2000/svg">
<path d="M12.7485 4.97757C12.7154 4.85035 12.7077 4.71785 12.7259 4.58765C12.744 4.45745 12.7877 4.33211 12.8543 4.2188C12.9209 4.10549 13.0093 4.00643 13.1142 3.92728C13.2192 3.84814 13.3387 3.79047 13.466 3.75757C15.5978 3.20776 17.8342 3.20776 19.966 3.75757C20.2021 3.81802 20.408 3.96263 20.545 4.16422C20.682 4.36581 20.7407 4.6105 20.71 4.85229C20.6793 5.09409 20.5613 5.31635 20.3783 5.47729C20.1953 5.63824 19.9597 5.7268 19.716 5.72632C19.6316 5.72588 19.5477 5.71496 19.466 5.69382C17.6622 5.22858 15.7698 5.22858 13.966 5.69382C13.7096 5.75996 13.4374 5.7217 13.2092 5.58743C12.9809 5.45315 12.8153 5.23383 12.7485 4.97757ZM7.43976 7.23882C5.89806 8.80872 4.77985 10.7441 4.18976 12.8638C4.11898 13.1194 4.15263 13.3927 4.28332 13.6235C4.41401 13.8542 4.63103 14.0237 4.88663 14.0944C5.14223 14.1652 5.41548 14.1316 5.64627 14.0009C5.87706 13.8702 6.04648 13.6532 6.11726 13.3976C6.61609 11.6033 7.56232 9.96502 8.86726 8.63632C9.03794 8.44432 9.12819 8.194 9.11929 7.93726C9.11039 7.68052 9.00302 7.43705 8.81945 7.25733C8.63587 7.07762 8.39018 6.97544 8.13331 6.972C7.87643 6.96855 7.62808 7.06409 7.43976 7.23882ZM6.11726 19.2901C6.08213 19.1635 6.02241 19.0451 5.94153 18.9416C5.86064 18.8381 5.76016 18.7516 5.64583 18.6869C5.5315 18.6223 5.40555 18.5808 5.27518 18.5648C5.14481 18.5488 5.01257 18.5587 4.88601 18.5938C4.75944 18.6289 4.64104 18.6887 4.53756 18.7695C4.43407 18.8504 4.34753 18.9509 4.28288 19.0652C4.21823 19.1796 4.17673 19.3055 4.16075 19.4359C4.14477 19.5663 4.15463 19.6985 4.18976 19.8251C4.7802 21.9446 5.89837 23.8799 7.43976 25.4501C7.62574 25.6392 7.87924 25.7467 8.14448 25.7489C8.40973 25.7512 8.665 25.6479 8.85413 25.4619C9.04326 25.276 9.15077 25.0225 9.15299 24.7572C9.15522 24.492 9.05199 24.2367 8.866 24.0476C7.56268 22.7193 6.61702 21.0826 6.11726 19.2901ZM19.466 26.9988C17.6622 27.4645 15.7698 27.4645 13.966 26.9988C13.8381 26.9637 13.7045 26.9544 13.573 26.9714C13.4415 26.9884 13.3147 27.0313 13.1999 27.0978C13.0852 27.1643 12.9848 27.2529 12.9046 27.3585C12.8245 27.4642 12.7661 27.5847 12.733 27.7131C12.6998 27.8415 12.6925 27.9752 12.7115 28.1064C12.7305 28.2377 12.7754 28.3638 12.8437 28.4775C12.9119 28.5913 13.002 28.6903 13.1089 28.7688C13.2157 28.8474 13.3371 28.9039 13.466 28.9351C15.5978 29.4849 17.8342 29.4849 19.966 28.9351C20.2192 28.8655 20.4349 28.6992 20.5665 28.472C20.6981 28.2448 20.7351 27.975 20.6694 27.7207C20.6038 27.4665 20.4408 27.2483 20.2156 27.1132C19.9905 26.9782 19.7212 26.9371 19.466 26.9988ZM28.5473 18.5963C28.4206 18.5612 28.2883 18.5514 28.1578 18.5674C28.0274 18.5835 27.9014 18.6251 27.787 18.6898C27.6727 18.7546 27.5722 18.8413 27.4914 18.9449C27.4106 19.0486 27.351 19.1671 27.316 19.2938C26.8174 21.0879 25.8712 22.7258 24.566 24.0538C24.474 24.1476 24.4014 24.2585 24.3522 24.3803C24.3031 24.5021 24.2784 24.6324 24.2796 24.7637C24.2809 24.8951 24.3079 25.0249 24.3593 25.1457C24.4107 25.2666 24.4854 25.3762 24.5791 25.4682C24.6729 25.5602 24.7838 25.6328 24.9056 25.682C25.0274 25.7311 25.1577 25.7558 25.289 25.7546C25.4204 25.7533 25.5502 25.7263 25.6711 25.6749C25.7919 25.6235 25.9015 25.5488 25.9935 25.4551C27.5354 23.8853 28.6537 21.9499 29.2435 19.8301C29.279 19.7033 29.2892 19.5708 29.2734 19.4402C29.2576 19.3095 29.2162 19.1833 29.1515 19.0686C29.0868 18.954 29.0002 18.8533 28.8965 18.7722C28.7928 18.6912 28.6741 18.6314 28.5473 18.5963ZM27.3148 13.4038C27.3499 13.5304 27.4096 13.6488 27.4905 13.7523C27.5714 13.8558 27.6719 13.9423 27.7862 14.0069C27.9005 14.0716 28.0265 14.1131 28.1568 14.1291C28.2872 14.1451 28.4194 14.1352 28.546 14.1001C28.6726 14.0649 28.791 14.0052 28.8945 13.9243C28.9979 13.8435 29.0845 13.743 29.1491 13.6286C29.2138 13.5143 29.2553 13.3884 29.2713 13.258C29.2872 13.1276 29.2774 12.9954 29.2423 12.8688C28.6524 10.749 27.5342 8.81356 25.9923 7.24382C25.9002 7.15017 25.7905 7.07558 25.6696 7.0243C25.5487 6.97302 25.4189 6.94606 25.2875 6.94495C25.1562 6.94385 25.0259 6.96863 24.9042 7.01787C24.7824 7.06711 24.6715 7.13985 24.5779 7.23194C24.4842 7.32403 24.4096 7.43367 24.3584 7.55458C24.3071 7.6755 24.2801 7.80533 24.279 7.93667C24.2779 8.06801 24.3027 8.19828 24.3519 8.32004C24.4012 8.4418 24.4739 8.55267 24.566 8.64632C25.8698 9.97375 26.8155 11.6102 27.3148 13.4026V13.4038Z" fill="#00ADB5"/>
</svg>
