<svg width="33" height="33" viewBox="0 0 33 33" fill="none" xmlns="http://www.w3.org/2000/svg">
<path d="M22.4656 4.3457C19.8843 4.3457 17.6243 5.4557 16.2156 7.33195C14.8068 5.4557 12.5468 4.3457 9.96558 4.3457C7.91086 4.34802 5.94096 5.16528 4.48806 6.61818C3.03515 8.07109 2.21789 10.041 2.21558 12.0957C2.21558 20.8457 15.1893 27.9282 15.7418 28.2207C15.8874 28.299 16.0502 28.34 16.2156 28.34C16.3809 28.34 16.5437 28.299 16.6893 28.2207C17.2418 27.9282 30.2156 20.8457 30.2156 12.0957C30.2133 10.041 29.396 8.07109 27.9431 6.61818C26.4902 5.16528 24.5203 4.34802 22.4656 4.3457ZM16.2156 26.1957C13.9331 24.8657 4.21558 18.807 4.21558 12.0957C4.21756 10.5713 4.824 9.10994 5.9019 8.03203C6.97981 6.95413 8.44119 6.34769 9.96558 6.3457C12.3968 6.3457 14.4381 7.6407 15.2906 9.7207C15.3659 9.90411 15.4941 10.061 15.6588 10.1714C15.8235 10.2818 16.0173 10.3407 16.2156 10.3407C16.4139 10.3407 16.6077 10.2818 16.7724 10.1714C16.9371 10.061 17.0652 9.90411 17.1406 9.7207C17.9931 7.63695 20.0343 6.3457 22.4656 6.3457C23.99 6.34769 25.4513 6.95413 26.5292 8.03203C27.6072 9.10994 28.2136 10.5713 28.2156 12.0957C28.2156 18.797 18.4956 24.8645 16.2156 26.1957Z" fill="#EEEEEE"/>
</svg>
